<svg width="65" height="64" viewBox="0 0 65 64" fill="none" xmlns="http://www.w3.org/2000/svg">
<g clip-path="url(#clip0_23_666)">
<path d="M60.36 28.9375L58.735 22.3125C58.9433 22.2708 59.1204 22.1562 59.2662 21.9688C59.4121 21.7812 59.485 21.5625 59.485 21.3125V20.25C59.485 19.0833 59.0787 18.0938 58.2662 17.2812C57.4537 16.4688 56.4642 16.0625 55.2975 16.0625H47.735V13.8125C47.735 13.2708 47.5371 12.7917 47.1412 12.375C46.7454 11.9583 46.2558 11.75 45.6725 11.75H7.23499C6.65165 11.75 6.15165 11.9583 5.73499 12.375C5.31832 12.7917 5.10999 13.2708 5.10999 13.8125V32C5.10999 32.2917 5.21415 32.5312 5.42249 32.7188C5.63082 32.9062 5.85999 33 6.10999 33C6.40165 33 6.64124 32.9062 6.82874 32.7188C7.01624 32.5312 7.10999 32.2917 7.10999 32V13.8125C7.10999 13.8125 7.1204 13.8021 7.14124 13.7812C7.16207 13.7604 7.19332 13.75 7.23499 13.75H45.6725C45.7142 13.75 45.735 13.7604 45.735 13.7812C45.735 13.8021 45.735 13.8125 45.735 13.8125V32C45.735 32.2917 45.8392 32.5312 46.0475 32.7188C46.2558 32.9062 46.485 33 46.735 33C47.0267 33 47.2662 32.9062 47.4537 32.7188C47.6412 32.5312 47.735 32.2917 47.735 32V30.875H59.61C60.3183 30.875 60.9537 31.0833 61.5162 31.5C62.0787 31.9167 62.4642 32.4583 62.6725 33.125H59.61C59.3183 33.125 59.0787 33.2292 58.8912 33.4375C58.7037 33.6458 58.61 33.875 58.61 34.125V36.25C58.61 37.125 58.9121 37.875 59.5162 38.5C60.1204 39.125 60.86 39.4375 61.735 39.4375H62.86V43.8125H60.235C59.8183 42.5625 59.0579 41.5417 57.9537 40.75C56.8496 39.9583 55.61 39.5625 54.235 39.5625C52.86 39.5625 51.6204 39.9583 50.5162 40.75C49.4121 41.5417 48.6517 42.5625 48.235 43.8125H47.735V36.25C47.735 36 47.6412 35.7708 47.4537 35.5625C47.2662 35.3542 47.0267 35.25 46.735 35.25C46.485 35.25 46.2558 35.3542 46.0475 35.5625C45.8392 35.7708 45.735 36 45.735 36.25V43.8125H24.985C24.5267 42.5625 23.7558 41.5417 22.6725 40.75C21.5892 39.9583 20.36 39.5625 18.985 39.5625C17.5683 39.5625 16.3183 39.9583 15.235 40.75C14.1517 41.5417 13.4017 42.5625 12.985 43.8125H7.23499C7.19332 43.8125 7.16207 43.8125 7.14124 43.8125C7.1204 43.8125 7.10999 43.7917 7.10999 43.75V41.5625H11.485C11.7767 41.5625 12.0162 41.4583 12.2037 41.25C12.3912 41.0417 12.485 40.8125 12.485 40.5625C12.485 40.2708 12.3912 40.0312 12.2037 39.8438C12.0162 39.6562 11.7767 39.5625 11.485 39.5625H1.85999C1.56832 39.5625 1.32874 39.6562 1.14124 39.8438C0.953735 40.0312 0.859985 40.2708 0.859985 40.5625C0.859985 40.8125 0.953735 41.0417 1.14124 41.25C1.32874 41.4583 1.56832 41.5625 1.85999 41.5625H5.10999V43.75C5.10999 44.3333 5.31832 44.8229 5.73499 45.2188C6.15165 45.6146 6.65165 45.8125 7.23499 45.8125H12.61C12.61 45.8542 12.61 45.875 12.61 45.875C12.61 47.625 13.235 49.125 14.485 50.375C15.735 51.625 17.235 52.25 18.985 52.25C20.735 52.25 22.2246 51.625 23.4537 50.375C24.6829 49.125 25.2975 47.625 25.2975 45.875C25.2975 45.875 25.2975 45.8542 25.2975 45.8125H47.9225C47.9225 45.8542 47.9121 45.875 47.8912 45.875C47.8704 45.875 47.86 45.875 47.86 45.875C47.86 47.625 48.485 49.125 49.735 50.375C50.985 51.625 52.485 52.25 54.235 52.25C55.985 52.25 57.485 51.625 58.735 50.375C59.985 49.125 60.61 47.625 60.61 45.875C60.61 45.875 60.61 45.8542 60.61 45.8125H63.86C64.1517 45.8125 64.3912 45.7188 64.5787 45.5312C64.7662 45.3438 64.86 45.1042 64.86 44.8125V34.125C64.86 32.8333 64.4329 31.6875 63.5787 30.6875C62.7246 29.6875 61.6517 29.1042 60.36 28.9375ZM47.735 18.0625H55.2975C55.9225 18.0625 56.4433 18.2708 56.86 18.6875C57.2767 19.1042 57.485 19.625 57.485 20.25V20.3125H47.735V18.0625ZM47.735 28.875V22.3125H56.6725L58.2975 28.875H47.735ZM18.985 50.25C17.7767 50.25 16.7454 49.8229 15.8912 48.9688C15.0371 48.1146 14.61 47.0833 14.61 45.875C14.61 44.7083 15.0371 43.6979 15.8912 42.8438C16.7454 41.9896 17.7767 41.5625 18.985 41.5625C20.1517 41.5625 21.1621 41.9896 22.0162 42.8438C22.8704 43.6979 23.2975 44.7083 23.2975 45.875C23.2975 47.0833 22.8704 48.1146 22.0162 48.9688C21.1621 49.8229 20.1517 50.25 18.985 50.25ZM54.235 50.25C53.0267 50.25 52.0058 49.8229 51.1725 48.9688C50.3392 48.1146 49.9225 47.0833 49.9225 45.875C49.9225 44.7083 50.3392 43.6979 51.1725 42.8438C52.0058 41.9896 53.0267 41.5625 54.235 41.5625C55.4433 41.5625 56.4746 41.9896 57.3287 42.8438C58.1829 43.6979 58.61 44.7083 58.61 45.875C58.61 47.0833 58.1829 48.1146 57.3287 48.9688C56.4746 49.8229 55.4433 50.25 54.235 50.25ZM62.86 37.4375H61.735C61.4017 37.4375 61.1308 37.3229 60.9225 37.0938C60.7142 36.8646 60.61 36.5833 60.61 36.25V35.125H62.86V37.4375ZM18.985 43.8125C18.4017 43.8125 17.9121 44.0208 17.5162 44.4375C17.1204 44.8542 16.9225 45.3333 16.9225 45.875C16.9225 46.4583 17.1204 46.9479 17.5162 47.3438C17.9121 47.7396 18.4017 47.9375 18.985 47.9375C19.5267 47.9375 20.0058 47.7396 20.4225 47.3438C20.8392 46.9479 21.0475 46.4583 21.0475 45.875C21.0475 45.3333 20.8392 44.8542 20.4225 44.4375C20.0058 44.0208 19.5267 43.8125 18.985 43.8125ZM54.235 43.8125C53.6517 43.8125 53.1621 44.0208 52.7662 44.4375C52.3704 44.8542 52.1725 45.3333 52.1725 45.875C52.1725 46.4583 52.3704 46.9479 52.7662 47.3438C53.1621 47.7396 53.6517 47.9375 54.235 47.9375C54.8183 47.9375 55.3079 47.7396 55.7037 47.3438C56.0996 46.9479 56.2975 46.4583 56.2975 45.875C56.2975 45.3333 56.0996 44.8542 55.7037 44.4375C55.3079 44.0208 54.8183 43.8125 54.235 43.8125ZM42.485 39.5625H27.485C27.235 39.5625 27.0058 39.6562 26.7975 39.8438C26.5892 40.0312 26.485 40.2708 26.485 40.5625C26.485 40.8125 26.5892 41.0417 26.7975 41.25C27.0058 41.4583 27.235 41.5625 27.485 41.5625H42.485C42.7767 41.5625 43.0162 41.4583 43.2037 41.25C43.3912 41.0417 43.485 40.8125 43.485 40.5625C43.485 40.2708 43.3912 40.0312 43.2037 39.8438C43.0162 39.6562 42.7767 39.5625 42.485 39.5625ZM16.7975 35.25H3.98499C3.73499 35.25 3.50582 35.3542 3.29749 35.5625C3.08915 35.7708 2.98499 36 2.98499 36.25C2.98499 36.5417 3.08915 36.7812 3.29749 36.9688C3.50582 37.1562 3.73499 37.25 3.98499 37.25H16.7975C17.0892 37.25 17.3287 37.1562 17.5162 36.9688C17.7037 36.7812 17.7975 36.5417 17.7975 36.25C17.7975 36 17.7037 35.7708 17.5162 35.5625C17.3287 35.3542 17.0892 35.25 16.7975 35.25ZM35.735 21.6875C35.5267 21.4792 35.2871 21.375 35.0162 21.375C34.7454 21.375 34.5058 21.4792 34.2975 21.6875L25.36 30.5625L20.735 25.9375C20.5267 25.7292 20.2871 25.625 20.0162 25.625C19.7454 25.625 19.5058 25.7292 19.2975 25.9375C19.1308 26.1458 19.0475 26.3854 19.0475 26.6562C19.0475 26.9271 19.1308 27.1667 19.2975 27.375L24.6725 32.6875C24.7558 32.8125 24.86 32.8958 24.985 32.9375C25.11 32.9792 25.235 33 25.36 33C25.485 33 25.61 32.9792 25.735 32.9375C25.86 32.8958 25.985 32.8125 26.11 32.6875L35.735 23.0625C35.9017 22.8958 35.985 22.6667 35.985 22.375C35.985 22.0833 35.9017 21.8542 35.735 21.6875Z" fill="#4BAF47"/>
</g>
<defs>
<clipPath id="clip0_23_666">
<rect width="64" height="64" fill="white" transform="matrix(1 0 0 -1 0.859985 64)"/>
</clipPath>
</defs>
</svg>
