<svg width="65" height="64" viewBox="0 0 65 64" fill="none" xmlns="http://www.w3.org/2000/svg">
<g clip-path="url(#clip0_23_659)">
<path d="M48.5975 49.0625L47.16 50.4375L43.7225 47.0625H46.5975L48.5975 49.0625ZM54.16 49.0625C54.16 50.7292 53.5767 52.1458 52.41 53.3125C51.2433 54.4792 49.8267 55.0625 48.16 55.0625H42.16V53.0625H48.16C49.285 53.0625 50.2329 52.6667 51.0038 51.875C51.7746 51.0833 52.16 50.1458 52.16 49.0625C52.16 48.6875 52.1079 48.3333 52.0038 48C51.8996 47.6667 51.7642 47.3333 51.5975 47V47.0625H53.785C53.91 47.3542 54.0038 47.6667 54.0663 48C54.1288 48.3333 54.16 48.6875 54.16 49.0625ZM47.16 50.4375L40.7225 44.0625L47.16 37.625L48.5975 39.0625L43.5975 44.0625L48.5975 49.0625L47.16 50.4375ZM8.16 42.25V44.0625L3.16 42.0625V40.25L8.16 42.25ZM8.16 39.125V40.9375L3.16 38.9375V37.125L8.16 39.125ZM31.2225 58.1875L0.160004 44.6875V21.4375L33.0975 3.9375L62.16 15.375V38.625L56.91 41.9375L55.8475 40.25L60.16 37.5V16.75L33.2225 6.125L2.16 22.625V43.375L31.0975 55.9375L37.285 52L38.3475 53.6875L31.2225 58.1875ZM31.16 58.0625C31.0767 58.0625 31.0038 58.0521 30.9413 58.0312C30.8788 58.0104 30.8058 57.9792 30.7225 57.9375H30.785L0.785004 44.9375C0.57667 44.8958 0.42042 44.7917 0.316254 44.625C0.212087 44.4583 0.160004 44.2708 0.160004 44.0625V22.0625C0.160004 21.7708 0.253754 21.5312 0.441254 21.3438C0.628754 21.1562 0.868337 21.0625 1.16 21.0625C1.24334 21.0625 1.31625 21.0625 1.37875 21.0625C1.44125 21.0625 1.49334 21.0833 1.535 21.125L31.535 33.125C31.7017 33.2083 31.8475 33.3333 31.9725 33.5C32.0975 33.6667 32.16 33.8542 32.16 34.0625V57.0625C32.16 57.3125 32.0663 57.5417 31.8788 57.75C31.6913 57.9583 31.4517 58.0625 31.16 58.0625ZM2.16 43.375L30.16 55.5V34.75L2.16 23.5V43.375ZM31.16 58.0625C30.8683 58.0625 30.6288 57.9583 30.4413 57.75C30.2538 57.5417 30.16 57.3125 30.16 57.0625V34.0625C30.16 33.8542 30.2017 33.6771 30.285 33.5312C30.3683 33.3854 30.4933 33.2708 30.66 33.1875L60.66 15.1875C60.7433 15.1458 60.8267 15.1146 60.91 15.0938C60.9933 15.0729 61.0767 15.0625 61.16 15.0625C61.4517 15.0625 61.6913 15.1562 61.8788 15.3438C62.0663 15.5312 62.16 15.7708 62.16 16.0625V38.0625C62.16 38.2292 62.1183 38.3854 62.035 38.5312C61.9517 38.6771 61.8475 38.7917 61.7225 38.875L56.91 41.9375L55.8475 40.25L60.16 37.5V17.8125L32.16 34.625V55.25L37.285 52L38.3475 53.6875L31.7225 57.875C31.6392 57.9167 31.5454 57.9583 31.4413 58C31.3371 58.0417 31.2433 58.0625 31.16 58.0625ZM19.16 37.0625C19.0767 37.0625 19.0038 37.0521 18.9413 37.0312C18.8788 37.0104 18.8267 37 18.785 37L13.785 35C13.6183 34.9167 13.4725 34.7917 13.3475 34.625C13.2225 34.4583 13.16 34.2708 13.16 34.0625V27.25C13.16 26.9583 13.2538 26.7188 13.4413 26.5312C13.6288 26.3438 13.8683 26.25 14.16 26.25C14.2433 26.25 14.3163 26.2604 14.3788 26.2812C14.4413 26.3021 14.4933 26.3125 14.535 26.3125L19.535 28.3125C19.7017 28.3958 19.8475 28.5208 19.9725 28.6875C20.0975 28.8542 20.16 29.0417 20.16 29.25V36.0625C20.16 36.3125 20.0663 36.5417 19.8788 36.75C19.6913 36.9583 19.4517 37.0625 19.16 37.0625ZM15.16 33.375L18.16 34.5625V29.9375L15.16 28.75V33.375ZM19.16 30.25C19.0767 30.25 19.0038 30.2396 18.9413 30.2188C18.8788 30.1979 18.8267 30.1875 18.785 30.1875L13.785 28.1875C13.6183 28.1042 13.4725 27.9792 13.3475 27.8125C13.2225 27.6458 13.16 27.4583 13.16 27.25C13.16 27.0833 13.2017 26.9271 13.285 26.7812C13.3683 26.6354 13.4933 26.5 13.66 26.375L42.9725 8.25C43.0142 8.20833 43.0871 8.17708 43.1913 8.15625C43.2954 8.13542 43.3892 8.125 43.4725 8.125C43.5558 8.125 43.6288 8.125 43.6913 8.125C43.7538 8.125 43.8058 8.14583 43.8475 8.1875L48.91 10.1875C49.0767 10.2292 49.2121 10.3333 49.3163 10.5C49.4204 10.6667 49.4725 10.8542 49.4725 11.0625C49.4725 11.2708 49.4308 11.4479 49.3475 11.5938C49.2642 11.7396 49.16 11.8542 49.035 11.9375L19.66 30.125C19.6183 30.1667 19.5454 30.1979 19.4413 30.2188C19.3371 30.2396 19.2433 30.25 19.16 30.25ZM16.3475 27.0625L19.035 28.125L46.285 11.25L43.5975 10.1875L16.3475 27.0625ZM47.16 60.0625C45.3683 60.0625 43.6808 59.7083 42.0975 59C40.5142 58.3333 39.1392 57.4167 37.9725 56.25C36.8058 55.0833 35.8683 53.7083 35.16 52.125C34.4933 50.5417 34.16 48.8542 34.16 47.0625C34.16 45.2708 34.4933 43.5833 35.16 42C35.8683 40.4167 36.8058 39.0312 37.9725 37.8438C39.1392 36.6562 40.5142 35.7292 42.0975 35.0625C43.6808 34.3958 45.3683 34.0625 47.16 34.0625C48.9517 34.0625 50.6392 34.3958 52.2225 35.0625C53.8058 35.7292 55.1808 36.6562 56.3475 37.8438C57.5142 39.0312 58.4517 40.4167 59.16 42C59.8267 43.5833 60.16 45.2708 60.16 47.0625C60.16 48.8542 59.8267 50.5417 59.16 52.125C58.4517 53.7083 57.5142 55.0833 56.3475 56.25C55.1808 57.4167 53.8058 58.3333 52.2225 59C50.6392 59.7083 48.9517 60.0625 47.16 60.0625ZM47.16 36.0625C44.1183 36.0625 41.5246 37.1354 39.3788 39.2812C37.2329 41.4271 36.16 44.0208 36.16 47.0625C36.16 50.1042 37.2329 52.6979 39.3788 54.8438C41.5246 56.9896 44.1183 58.0625 47.16 58.0625C50.2017 58.0625 52.7954 56.9896 54.9413 54.8438C57.0871 52.6979 58.16 50.1042 58.16 47.0625C58.16 44.0208 57.0871 41.4271 54.9413 39.2812C52.7954 37.1354 50.2017 36.0625 47.16 36.0625ZM48.16 55.0625H42.16V53.0625H48.16C49.285 53.0625 50.2329 52.6667 51.0038 51.875C51.7746 51.0833 52.16 50.1458 52.16 49.0625C52.16 47.9375 51.7746 46.9896 51.0038 46.2188C50.2329 45.4479 49.285 45.0625 48.16 45.0625H42.16V43.0625H48.16C49.8267 43.0625 51.2433 43.6458 52.41 44.8125C53.5767 45.9792 54.16 47.3958 54.16 49.0625C54.16 50.7292 53.5767 52.1458 52.41 53.3125C51.2433 54.4792 49.8267 55.0625 48.16 55.0625Z" fill="#4BAF47"/>
</g>
<defs>
<clipPath id="clip0_23_659">
<rect width="64" height="64" fill="white" transform="matrix(1 0 0 -1 0.160004 64)"/>
</clipPath>
</defs>
</svg>
